<?xml version="1.0" encoding="UTF-8"?>
<svg width="32px" height="32px" viewBox="0 0 32 32" version="1.1" xmlns="http://www.w3.org/2000/svg" xmlns:xlink="http://www.w3.org/1999/xlink">
    <!-- Generator: Sketch 48.1 (47250) - http://www.bohemiancoding.com/sketch -->
    <title>Product-card/desktop/small/Heart/Active</title>
    <desc>Created with Sketch.</desc>
    <defs></defs>
    <g id="Style-guide/Assets" stroke="none" stroke-width="1" fill="none" fill-rule="evenodd" transform="translate(-239.000000, -243.000000)">
        <g id="Group-31" transform="translate(239.000000, 243.000000)" fill="#FF5D5D" fill-rule="nonzero">
            <path d="M21.2490147,5 C25.4327519,5 28.9125982,8.66051484 29.0000445,12.9625657 C28.9981404,13.0327942 28.9981404,13.0327942 28.9975047,13.041706 C29.0000445,13.1948407 28.9909741,13.275834 28.9717733,13.3956164 C28.8007289,17.8153267 26.3902017,21.3928822 22.5283375,24.2079123 C21.1504977,25.2122616 19.6797095,26.0484392 18.2089144,26.7273369 C17.6935476,26.9652227 17.2139784,27.1668603 16.7818377,27.3333214 C16.5179949,27.434954 16.3252551,27.5033087 16.2152874,27.5393685 L15.9012286,27.6423525 L15.5876563,27.5378963 C15.4789805,27.5016945 15.2888109,27.4331818 15.0286355,27.3313736 C14.6027006,27.1647028 14.1300726,26.9628365 13.6222036,26.7247012 C12.1729965,26.0451806 10.7238578,25.2082876 9.36636559,24.2031463 C5.55859087,21.3837183 3.18460119,17.8011436 3.02768943,13.4131755 C3.00549507,13.2469601 2.99774789,13.1456693 3.00056723,13.0392006 C3.00026216,13.02717 3.00038131,13.0102367 3.00072699,12.9611085 C3.00349228,12.9250774 3.00663472,12.8917996 3.01043269,12.860517 C3.12789421,8.61594726 6.58866519,5 10.7474122,5 C12.7243716,5 14.5782646,5.82737066 15.9982135,7.23717051 C17.4181623,5.82737066 19.2720554,5 21.2490147,5 Z M28.9663565,13.4120813 C28.9662564,13.4147887 28.9661554,13.4174957 28.9660536,13.4202024 C28.9659735,13.4200497 28.9661383,13.4165032 28.9663565,13.4120813 Z" id="Product-card/desktop/small/Heart/Active"></path>
        </g>
    </g>
</svg>