<?xml version="1.0" encoding="UTF-8"?>
<svg width="32px" height="32px" viewBox="0 0 32 32" version="1.1" xmlns="http://www.w3.org/2000/svg" xmlns:xlink="http://www.w3.org/1999/xlink">
    <!-- Generator: Sketch 48.1 (47250) - http://www.bohemiancoding.com/sketch -->
    <title>Product-card/desktop/small/Heart/Active Copy</title>
    <desc>Created with Sketch.</desc>
    <defs></defs>
    <g id="Style-guide/Assets" stroke="none" stroke-width="1" fill="none" fill-rule="evenodd" transform="translate(-194.000000, -243.000000)">
        <g id="Group-34" transform="translate(194.000000, 243.000000)" fill-rule="nonzero" stroke="#FFFFFF" stroke-width="2">
            <path d="M21.2489667,6 C19.1156401,6 17.2358524,7.11617084 15.998163,8.7544216 C14.7604735,7.11617084 12.8806858,6 10.7473593,6 C7.05829464,6 4.07133745,9.28100219 4.00832781,12.9625657 C3.99632597,12.9850691 4.00082666,13.0060724 4.00082666,13.0285758 C3.99632597,13.1830995 4.02182987,13.2611114 4.02633056,13.3601265 C4.35638108,22.7425626 15.9036485,26.5891514 15.9036485,26.5891514 C15.9036485,26.5891514 27.6204419,22.7470633 27.9669949,13.3751288 C27.9729959,13.2701128 28,13.1876001 28,13.0795836 C27.9954993,13.0045721 28,12.9850691 28,12.9625657 C27.9249885,9.28100219 24.9380313,6 21.2489667,6 Z" id="Product-card/desktop/small/Heart/Active"></path>
        </g>
    </g>
</svg>