<?xml version="1.0" encoding="UTF-8"?>
<svg width="32px" height="32px" viewBox="0 0 32 32" version="1.1" xmlns="http://www.w3.org/2000/svg" xmlns:xlink="http://www.w3.org/1999/xlink">
    <!-- Generator: Sketch 47.1 (45422) - http://www.bohemiancoding.com/sketch -->
    <title>icn-phonmail@2x</title>
    <desc>Created with Sketch.</desc>
    <defs></defs>
    <g id="Symbols" stroke="none" stroke-width="1" fill="none" fill-rule="evenodd">
        <g id="ICN/mail/gray">
            <g id="ICN/chart" transform="translate(16.000000, 16.000000) scale(-1, 1) translate(-16.000000, -16.000000) ">
                <rect id="Rectangle-8" x="0" y="0" width="32" height="32"></rect>
                <path d="M6.30061817,7 L5,7 C3.8954305,7 3,7.8954305 3,9 L3,25 C3,26.1045695 3.8954305,27 5,27 L27,27 C28.1045695,27 29,26.1045695 29,25 L29,9 C29,7.8954305 28.1045695,7 27,7 L25.6993818,7 L25.9469439,6.72993226 L6.05305608,6.72993226 L6.30061817,7 L5,7 L13.7885376,16.5874955 C14.9081148,17.8088525 16.8058169,17.8913613 18.0271739,16.7717841 C18.091244,16.7130532 18.1527315,16.6515656 18.2114624,16.5874955 L27,7 L25.6993818,7 L18.2114624,15.1686394 C18.1527315,15.2327094 18.091244,15.294197 18.0271739,15.3529279 C16.8058169,16.4725051 14.9081148,16.3899963 13.7885376,15.1686394 L13.7885376,15.1686394 L6.30061817,7 Z" id="Combined-Shape" fill="#868C99"></path>
            </g>
        </g>
    </g>
</svg>